<svg width="580" height="400" xmlns="http://www.w3.org/2000/svg">
 <!-- Created with Method Draw - http://github.com/duopixel/Method-Draw/ -->

 <g>
  <title>background</title>
  <rect fill="none" id="canvas_background" height="402" width="582" y="-1" x="-1"/>
  <g display="none" overflow="visible" y="0" x="0" height="100%" width="100%" id="canvasGrid">
   <rect fill="url(#gridpattern)" stroke-width="0" y="0" x="0" height="100%" width="100%"/>
  </g>
 </g>
 <g>
  <title>Layer 1</title>
  <g stroke="null" id="svg_32">
   <g stroke="null" transform="matrix(30.878019660517257,0,0,30.984742690479724,-85.1106306029815,-39.15092946711209) " id="svg_13">
    <g stroke="null" id="svg_14">
     <path stroke="null" id="svg_15" fill="#030104" d="m17.676144,8.308467l0.014,-0.004c0,0 -0.265,-1.847 -1.845,-1.746c0,0 -0.963,0.184 -2.291,0.201l0,1.444l-0.778,0l0,-1.454c-0.234,-0.009 -0.476,-0.025 -0.722,-0.048l0,1.308l-0.778,0l0,-1.407c-0.23,-0.037 -0.462,-0.083 -0.694,-0.137l0,1.182l-0.777,0l0,-1.401c-0.364,-0.121 -0.721,-0.267 -1.062,-0.445c-0.238,-0.125 -1.498,-3.61 -1.718,-3.766l-4.247,1.34l0.62,3.815c-1.271,1.539 1.27,4.992 1.27,4.992l0.013,-0.005c-0.003,0.01 -0.009,0.021 -0.006,0.03l0.32,1.002c0.018,0.058 0.159,0.066 0.312,0.02l2.567,-0.789c0,0 -0.586,-1.495 0.701,-1.892c0.328,-0.108 0.672,-0.002 0.672,-0.002c0.948,0.222 2.104,0.824 2.104,0.824l6.373,-1.96c0.152,-0.046 0.264,-0.133 0.246,-0.191l-0.274,-0.89c-0.002,-0.008 -0.012,-0.014 -0.02,-0.021z"/>
     <path stroke="null" id="svg_16" fill="#030104" d="m20.257144,7.003467l1.261,-0.388l-1.294,-0.258c-0.868,-0.173 -1.453,-0.527 -1.738,-1.051c-0.427,-0.783 -0.063,-1.728 -0.06,-1.736l0.386,-0.96l-0.873,0.554c-0.669,0.424 -1.288,0.554 -1.84,0.385c-0.969,-0.296 -1.467,-1.415 -1.472,-1.427l-0.611,0.265c0.024,0.058 0.619,1.408 1.883,1.798c0.547,0.169 1.129,0.131 1.732,-0.112c-0.049,0.438 -0.025,1.008 0.266,1.547c0.277,0.513 0.74,0.899 1.382,1.155c-0.305,0.225 -0.617,0.556 -0.771,1.02c-0.25,0.75 -0.016,1.62 0.693,2.589l0.537,-0.394c-0.572,-0.783 -0.774,-1.449 -0.6,-1.981c0.237,-0.721 1.111,-1.004 1.119,-1.006z"/>
    </g>
   </g>
   <g stroke="null" transform="matrix(30.878019660517257,0,0,30.984742690479724,-85.1106306029815,-39.15092946711209) " id="svg_17"/>
   <g stroke="null" transform="matrix(30.878019660517257,0,0,30.984742690479724,-85.1106306029815,-39.15092946711209) " id="svg_18"/>
   <g stroke="null" transform="matrix(30.878019660517257,0,0,30.984742690479724,-85.1106306029815,-39.15092946711209) " id="svg_19"/>
   <g stroke="null" transform="matrix(30.878019660517257,0,0,30.984742690479724,-85.1106306029815,-39.15092946711209) " id="svg_20"/>
   <g stroke="null" transform="matrix(30.878019660517257,0,0,30.984742690479724,-85.1106306029815,-39.15092946711209) " id="svg_21"/>
   <g stroke="null" transform="matrix(30.878019660517257,0,0,30.984742690479724,-85.1106306029815,-39.15092946711209) " id="svg_22"/>
   <g stroke="null" transform="matrix(30.878019660517257,0,0,30.984742690479724,-85.1106306029815,-39.15092946711209) " id="svg_23"/>
   <g stroke="null" transform="matrix(30.878019660517257,0,0,30.984742690479724,-85.1106306029815,-39.15092946711209) " id="svg_24"/>
   <g stroke="null" transform="matrix(30.878019660517257,0,0,30.984742690479724,-85.1106306029815,-39.15092946711209) " id="svg_25"/>
   <g stroke="null" transform="matrix(30.878019660517257,0,0,30.984742690479724,-85.1106306029815,-39.15092946711209) " id="svg_26"/>
   <g stroke="null" transform="matrix(30.878019660517257,0,0,30.984742690479724,-85.1106306029815,-39.15092946711209) " id="svg_27"/>
   <g stroke="null" transform="matrix(30.878019660517257,0,0,30.984742690479724,-85.1106306029815,-39.15092946711209) " id="svg_28"/>
   <g stroke="null" transform="matrix(30.878019660517257,0,0,30.984742690479724,-85.1106306029815,-39.15092946711209) " id="svg_29"/>
   <g stroke="null" transform="matrix(30.878019660517257,0,0,30.984742690479724,-85.1106306029815,-39.15092946711209) " id="svg_30"/>
   <g stroke="null" transform="matrix(30.878019660517257,0,0,30.984742690479724,-85.1106306029815,-39.15092946711209) " id="svg_31"/>
  </g>
 </g>
</svg>