<?xml version="1.0" standalone="no"?>
<!DOCTYPE svg PUBLIC "-//W3C//DTD SVG 20010904//EN"
 "http://www.w3.org/TR/2001/REC-SVG-20010904/DTD/svg10.dtd">
<svg version="1.0" xmlns="http://www.w3.org/2000/svg"
 width="150.000000pt" height="150.000000pt" viewBox="0 0 150.000000 150.000000"
 preserveAspectRatio="xMidYMid meet">
<metadata>
Created by potrace 1.15, written by Peter Selinger 2001-2017
</metadata>
<g transform="translate(0.000000,150.000000) scale(0.100000,-0.100000)"
fill="#000000" stroke="none">
<path d="M1107 1473 c-4 -3 -7 -37 -7 -75 l0 -68 -502 0 c-481 0 -504 -1 -535
-20 -21 -13 -35 -31 -42 -57 -7 -23 -11 -153 -11 -321 l0 -283 112 3 113 3 3
228 2 227 430 0 430 0 0 -75 c0 -72 1 -75 24 -75 24 0 352 214 369 242 6 8 8
22 4 30 -7 20 -347 248 -368 248 -9 0 -19 -3 -22 -7z"/>
<path d="M685 989 c-27 -23 -52 -45 -54 -51 -4 -13 59 -78 77 -78 12 0 13 -28
7 -189 l-7 -188 32 -7 c18 -3 45 -6 60 -6 l27 0 6 188 c4 103 7 226 7 275 l0
87 -39 0 c-22 0 -45 2 -53 5 -7 2 -35 -14 -63 -36z"/>
<path d="M1260 620 l0 -230 -430 0 -430 0 0 75 c0 73 -1 75 -24 75 -25 0 -352
-214 -369 -242 -6 -8 -8 -22 -4 -30 9 -25 352 -250 373 -246 16 3 19 14 22 75
l3 72 509 3 510 3 32 33 33 32 3 305 3 305 -115 0 -116 0 0 -230z"/>
</g>
</svg>
