<svg width="332" height="276" xmlns="http://www.w3.org/2000/svg">
 <!-- Created with Method Draw - http://github.com/duopixel/Method-Draw/ -->

 <g>
  <title>background</title>
  <rect x="-1" y="-1" width="334" height="278" id="canvas_background" fill="none"/>
 </g>
 <g>
  <title>Layer 1</title>
  <path fill="#000000" stroke="#000" stroke-width="1.5" stroke-opacity="null" fill-opacity="null" d="m2.192493,82.129314l0,112.097526l63.814384,0l95.529921,78.451232l0.056787,-268.99999l-95.544117,78.451232l-63.856975,0z" id="svg_1"/>
  <path id="svg_2" d="m1.51749,81.091111l0,113.764407l64.763299,0l96.950442,79.617795l0.057631,-272.999997l-96.96485,79.617795l-64.806522,0zm198.943633,-13.08233c-5.662286,-5.604655 -14.753641,-5.604655 -20.387112,0.028816c-5.619063,5.63347 -5.619063,14.753641 0.028816,20.40152l0,-0.028816c12.433977,12.448385 20.098955,29.521691 20.098955,48.496833c0,18.960734 -7.65057,35.976409 -20.070139,48.424794c-5.676694,5.604655 -5.676694,14.724826 -0.028816,20.387112c2.809531,2.809531 6.497942,4.221501 10.186352,4.221501c3.702818,0 7.391229,-1.41197 10.20076,-4.221501c17.606396,-17.577581 28.527549,-41.998891 28.513141,-68.811906c0.014408,-26.870646 -10.949968,-51.320772 -28.541957,-68.898353z" fill-opacity="null" stroke-opacity="null" stroke-width="1.5" stroke="#000" fill="#000000"/>
 </g>
</svg>