<svg width="332" height="276" xmlns="http://www.w3.org/2000/svg">
 <!-- Created with Method Draw - http://github.com/duopixel/Method-Draw/ -->

 <g>
  <title>background</title>
  <rect x="-1" y="-1" width="334" height="278" id="canvas_background" fill="none"/>
 </g>
 <g>
  <title>Layer 1</title>
  <path fill="#000000" stroke="#000" stroke-width="1.5" stroke-opacity="null" fill-opacity="null" d="m2.192493,82.129314l0,112.097526l63.814384,0l95.529921,78.451232l0.056787,-268.99999l-95.544117,78.451232l-63.856975,0z" id="svg_1"/>
  <path id="svg_3" d="m0.522492,81.016695l0,113.665215l64.706832,0l96.865911,79.548376l0.057581,-272.761968l-96.880306,79.548376l-64.750017,0zm198.770174,-13.070924c-5.657349,-5.599768 -14.740778,-5.599768 -20.369336,0.028791c-5.614163,5.628559 -5.614163,14.740778 0.028791,20.383732l0,-0.028791c12.423136,12.437531 20.081431,29.495951 20.081431,48.454548c0,18.944203 -7.643899,35.945041 -20.05264,48.382572c-5.671745,5.599768 -5.671745,14.711987 -0.028791,20.369336c2.807082,2.807082 6.492276,4.21782 10.177471,4.21782c3.69959,0 7.384784,-1.410738 10.191866,-4.21782c17.591045,-17.562255 28.502676,-41.962272 28.48828,-68.751908c0.014395,-26.847217 -10.940421,-51.276025 -28.517071,-68.83828zm33.037192,-33.022797c-5.657349,-5.628559 -14.740778,-5.628559 -20.340546,0c-5.642954,5.628559 -5.642954,14.755173 0,20.354941c20.873171,20.887567 33.742561,49.620567 33.742561,81.491741c0,31.842383 -12.86939,60.560988 -33.713771,81.46295c-5.642954,5.614163 -5.642954,14.726382 0,20.354941c2.807082,2.807082 6.492276,4.21782 10.191866,4.21782c3.685194,0 7.370389,-1.410738 10.177471,-4.21782c26.026686,-26.041081 42.163806,-62.115679 42.135016,-101.817891c0.014395,-39.731002 -16.122726,-75.834391 -42.192597,-101.846682z" fill-opacity="null" stroke-opacity="null" stroke-width="1.5" stroke="#000" fill="#000000"/>
 </g>
</svg>