<svg width="332" height="276" xmlns="http://www.w3.org/2000/svg">
 <!-- Created with Method Draw - http://github.com/duopixel/Method-Draw/ -->

 <g>
  <title>background</title>
  <rect x="-1" y="-1" width="334" height="278" id="canvas_background" fill="none"/>
 </g>
 <g>
  <title>Layer 1</title>
  <path fill="#000000" stroke="#000" stroke-width="1.5" stroke-opacity="null" fill-opacity="null" d="m2.192493,82.129314l0,112.097526l63.814384,0l95.529921,78.451232l0.056787,-268.99999l-95.544117,78.451232l-63.856975,0z" id="svg_1"/>
  <path stroke="#000" id="svg_4" d="m1.522491,82.279534l0,112.473619l64.028485,0l95.850429,78.71444l0.056978,-269.9025l-95.864673,78.71444l-64.071218,0zm196.68639,-12.933896c-5.598041,-5.541064 -14.586244,-5.541064 -20.155797,0.028489c-5.555308,5.569552 -5.555308,14.586244 0.028489,20.170041l0,-0.028489c12.292899,12.307144 19.870909,29.186733 19.870909,47.946581c0,18.745603 -7.563765,35.568215 -19.84242,47.875359c-5.612285,5.541064 -5.612285,14.557756 -0.028489,20.155797c2.777654,2.777654 6.424215,4.173603 10.070776,4.173603c3.660805,0 7.307367,-1.395949 10.085021,-4.173603c17.406632,-17.378143 28.203871,-41.522366 28.189627,-68.031156c0.014244,-26.565767 -10.825728,-50.738479 -28.218115,-68.116622zm32.690851,-32.676606c-5.598041,-5.569552 -14.586244,-5.569552 -20.127308,0c-5.583797,5.569552 -5.583797,14.600489 0,20.141552c20.65435,20.668594 33.388825,49.100376 33.388825,80.637431c0,31.508567 -12.734475,59.926104 -33.360336,80.608943c-5.583797,5.555308 -5.583797,14.572 0,20.141552c2.777654,2.777654 6.424215,4.173603 10.085021,4.173603c3.646561,0 7.293122,-1.395949 10.070776,-4.173603c25.753838,-25.768082 41.721787,-61.464497 41.693298,-100.750495c0.014244,-39.314487 -15.953705,-75.03939 -41.750276,-100.778984zm31.038503,-31.038503c-5.598041,-5.569552 -14.600489,-5.541064 -20.141552,0.028489c-5.569552,5.541064 -5.569552,14.572 0.028489,20.127308l-0.028489,0c28.616958,28.616958 46.265744,67.988423 46.265744,111.66169c0,43.630534 -17.648786,83.016243 -46.237255,111.647445c-5.569552,5.555308 -5.569552,14.572 0.028489,20.155797c2.76341,2.76341 6.409971,4.145114 10.056532,4.145114s7.307367,-1.395949 10.085021,-4.173603c33.659468,-33.702202 54.570217,-80.381033 54.541728,-131.774753c0.028489,-51.436454 -20.88226,-98.129529 -54.598706,-131.817486z" fill-opacity="null" stroke-opacity="null" stroke-width="1.5" fill="#000000"/>
 </g>
</svg>